# xmcd
#
# Track frame offsets: 
#        150
#        11590
#        22488
#        37049
#        47654
#        59133
#        70766
#        83182
#        96355
#        107527
#        118194
#        129893
#        140231
#        151980
#
# Disc length: 2175 seconds
#
# Revision: 1
# Processed by: cddbd v1.5.2PL0 Copyright (c) Steve Scherf et al.
# Submitted via: ExactAudioCopyFreeDBPlugin 1.0
#
DISCID=ca087d0e
DTITLE=Ike Turner - Real Gone Rocket - Session Man Extraordinaire - Se
DTITLE=lected Singles 1951-1959
DYEAR=1900
DGENRE=Soul
TTITLE0=Jackie Brenston - My Real Gone Rocket
TTITLE1=Lonnie 'The Cat' - I Ain't Drunk
TTITLE2=Mat Cockrell - Gypsy Blues
TTITLE3=Jesse Knight - Nobody Seems To Want Me
TTITLE4=The Sly Fox - I'm Tired Of Begging
TTITLE5=Willie King - Peg Leg Woman
TTITLE6=Johnny Wright - Suffocate
TTITLE7=Billy Gayles - Just One More Time
TTITLE8=Gardenias - My Baby's Tops
TTITLE9=Clayton Love - The Big Question
TTITLE10=Kenneth Churchill - Would You Rather
TTITLE11=Chuck Bernard - Calling Your Name
TTITLE12=Starrs - Ain't Got No Home
TTITLE13=Icky Renrut - Ho Ho
EXTD=
EXTT0=
EXTT1=
EXTT2=
EXTT3=
EXTT4=
EXTT5=
EXTT6=
EXTT7=
EXTT8=
EXTT9=
EXTT10=
EXTT11=
EXTT12=
EXTT13=
PLAYORDER=
